<svg xmlns="http://www.w3.org/2000/svg" xmlns:xlink="http://www.w3.org/1999/xlink" viewBox="0 0 1980 1080"><defs><style>.cls-1,.cls-6{fill:none;}.cls-2,.cls-4{fill:#ff9700;}.cls-3{clip-path:url(#clip-path);}.cls-4{opacity:0.1;}.cls-5{fill:#ffbc00;}.cls-6{stroke:#ff9700;stroke-linecap:round;stroke-linejoin:round;stroke-width:10px;}.cls-7{fill:#1d1e1b;}.cls-8{fill:#ff6e00;}.cls-9{clip-path:url(#clip-path-2);}.cls-10{font-size:29.66px;fill:#fff;font-family:Omnes-Semibold, Omnes;font-weight:600;}.cls-11{letter-spacing:-0.02em;}.cls-12{font-size:13.4px;}.cls-13{letter-spacing:-0.06em;}.cls-14{letter-spacing:-0.02em;}</style><clipPath id="clip-path"><rect class="cls-1" x="338" y="181" width="1280" height="720"/></clipPath><clipPath id="clip-path-2"><rect class="cls-2" x="841.25" y="306.5" width="249.5" height="499"/></clipPath></defs><title>1</title><g id="Frame_1" data-name="Frame 1"><g class="cls-3"><path class="cls-4" d="M1596.27,806.31A12,12,0,0,0,1608,791.87a186.25,186.25,0,0,0-26.19-64.19c-18.68-28.63-44.84-51.66-64.64-79.52-54.09-76.08-55-178.47-99.82-260.36-50.47-92.24-158.89-149.24-263.49-138.51-65,6.68-125,36.56-184.39,63.79-165.35,75.8-339.3,135-493.65,231.29-23,14.32-45.83,29.78-62.6,51C382.71,634,376.35,687.32,385,735.72c3.77,21,10.07,41.4,17.78,61.32l0,.08a12,12,0,0,0,11.12,7.59Z"/><path class="cls-5" d="M1219.51,825.5h-12A2.48,2.48,0,0,1,1205,823v0c-.08-14.32-.21-36,23.2-61.89a69.11,69.11,0,0,0,16.3-29.76,52.23,52.23,0,0,0,1.58-11.38,2.47,2.47,0,0,1,2.24-2.41l12-1.17a2.49,2.49,0,0,1,2.72,2.46c.06,7.78-1.68,30.86-22.27,53.66-19,21-18.9,36.63-18.82,50.39v.1A2.48,2.48,0,0,1,1219.51,825.5Z"/><path class="cls-5" d="M1324.57,825.5h-12a2.51,2.51,0,0,1-2.51-2.52v-.07c.08-13.76.18-29.37-18.82-50.39-20.55-22.76-22.32-45.81-22.26-53.62a2.5,2.5,0,0,1,2.75-2.48l14.28,1.43-8.46-.85,6.16.57A2.5,2.5,0,0,1,1286,720a52.67,52.67,0,0,0,1.59,11.35,69,69,0,0,0,16.29,29.76c23.41,25.93,23.29,47.57,23.2,61.89h0A2.5,2.5,0,0,1,1324.57,825.5Z"/><rect class="cls-5" x="1197" y="708" width="138" height="17" rx="8.5"/><line class="cls-6" x1="1241" y1="652" x2="1241" y2="548"/><line class="cls-6" x1="1241" y1="580" x2="1260" y2="561"/><line class="cls-6" x1="1241" y1="618" x2="1260" y2="599"/><line class="cls-6" x1="1241" y1="599" x2="1222" y2="580"/><line class="cls-6" x1="1241" y1="637" x2="1222" y2="618"/><path class="cls-7" d="M587.27,460.84a1.5,1.5,0,0,0,0-3,1.5,1.5,0,0,0,0,3Z"/><path class="cls-8" d="M632.18,777.86l-2.93-58.27c-1.32-26.29-2.74-53.07-11.92-77.74-7.06-19-18.57-36.24-24-55.77s-2.92-43.47,13.33-55.56c17-12.65,43.1-6.36,57,9.62s17.61,38.7,15.87,59.83-8.21,41.55-12.16,62.38a264.56,264.56,0,0,0,6.26,123.9c-12.38-4.45-25.06-3.59-37.45-8C635.68,777.22,632.23,779,632.18,777.86Z"/><path class="cls-2" d="M715.74,666.78c2.47-10.13,4.9-21,1.08-30.76s-16.72-16.41-25.07-10.15c-9.27,7-5.25,21.39-7,32.85-3.06,19.6-24,30.67-34.48,47.5-13.91,22.31-7.82,51.13-1.28,76.6,8.68,33.82,38.68,24.28,41.64-5.48C694.28,740.25,706.93,703,715.74,666.78Z"/><path class="cls-5" d="M685.55,825h-50.1a8.25,8.25,0,0,1-7.83-5.64l-14.5-43.5A8.25,8.25,0,0,1,621,765h79.1a8.25,8.25,0,0,1,7.83,10.86l-14.5,43.5A8.25,8.25,0,0,1,685.55,825Z"/><rect class="cls-8" x="1222" y="652" width="37" height="56" rx="5.96"/><rect class="cls-2" x="841.25" y="306.5" width="249.5" height="499"/><g class="cls-9"><circle class="cls-8" cx="876" cy="556" r="15"/><path class="cls-8" d="M887.58,325.18c-1,8.55-3.2,17-2.85,25.63.28,7,2.7,14.39,7.7,19.07a2.05,2.05,0,0,1-1.16,3.54c-33.12,3.66-67.86-25.33-56.88-60.51S891.87,287.78,887.58,325.18Z"/><path class="cls-5" d="M869,368.17c-.72,6.33-2.37,12.6-2.11,19a21.65,21.65,0,0,0,4.39,12.71,2.56,2.56,0,0,1-1.79,4.21c-23.81,1.22-47.75-19.73-39.87-45C837.73,333,872.14,340.49,869,368.17Z"/><path class="cls-8" d="M1033.81,327.3c1.38,5.87,5.07,10.88,7.69,16.31,8.52,17.66,4.08,40.42-9.65,54.21a2.8,2.8,0,0,0,2,4.79c13.6-.22,27.23-1.23,40.09-5.51,15.31-5.1,29.58-15.54,35.65-30.49,8.56-21.13-.43-62.14-21.8-74.18C1067,280.68,1027.75,301.35,1033.81,327.3Z"/><rect class="cls-8" x="915" y="428" width="109" height="68" transform="translate(-62.09 163.35) rotate(-9.33)"/></g><text class="cls-10" transform="translate(933.47 470.9) rotate(-8.44)">S<tspan class="cls-11" x="16.87" y="0">T</tspan><tspan x="34.13" y="0">OP</tspan><tspan class="cls-12"><tspan x="1.31" y="16.08">DEMI</tspan><tspan class="cls-13" x="32.42" y="16.08">-</tspan><tspan class="cls-14" x="37.33" y="16.08">T</tspan><tspan x="45.13" y="16.08">OUR</tspan></tspan></text></g></g></svg>